<svg xmlns="http://www.w3.org/2000/svg" width="900" height="426" viewBox="0 0 900 426" role="img" aria-labelledby="title desc"><title id="title">EVOD-02-F8: Three runs are not one typical run</title><desc id="desc">What can a mean conceal? Do not label supplied illustrative values as measured training results.</desc><defs><marker id="arrow" markerWidth="8" markerHeight="8" refX="7" refY="3" orient="auto"><path d="M0,0 L0,6 L7,3 z" fill="#176CA4"/></marker></defs><rect width="100%" height="100%" fill="white"/><g font-family="DejaVu Sans, sans-serif"><path d="M120,305 L825,305" fill="none" stroke="#176CA4" stroke-width="3"/><path d="M120.0,299 L120.0,312" fill="none" stroke="#176CA4" stroke-width="3"/><text x="120.0" y="342" font-size="20" font-weight="normal" text-anchor="middle" fill="#18344A">0.5</text><path d="M260.0,299 L260.0,312" fill="none" stroke="#176CA4" stroke-width="3"/><text x="260.0" y="342" font-size="20" font-weight="normal" text-anchor="middle" fill="#18344A">0.6</text><path d="M400.0,299 L400.0,312" fill="none" stroke="#176CA4" stroke-width="3"/><text x="400.0" y="342" font-size="20" font-weight="normal" text-anchor="middle" fill="#18344A">0.7</text><path d="M540.0,299 L540.0,312" fill="none" stroke="#176CA4" stroke-width="3"/><text x="540.0" y="342" font-size="20" font-weight="normal" text-anchor="middle" fill="#18344A">0.8</text><path d="M680.0,299 L680.0,312" fill="none" stroke="#176CA4" stroke-width="3"/><text x="680.0" y="342" font-size="20" font-weight="normal" text-anchor="middle" fill="#18344A">0.9</text><path d="M820.0,299 L820.0,312" fill="none" stroke="#176CA4" stroke-width="3"/><text x="820.0" y="342" font-size="20" font-weight="normal" text-anchor="middle" fill="#18344A">1.0</text><circle cx="134.0" cy="155" r="12" fill="#FFFFFF" stroke="#176CA4" stroke-width="2.5"/><text x="134.0" y="163" font-size="24" font-weight="bold" text-anchor="middle" fill="#176CA4"></text><text x="134.0" y="130" font-size="22" font-weight="normal" text-anchor="middle" fill="#18344A">0.51</text><path d="M134.0,171 L134.0,298" fill="none" stroke="#176CA4" stroke-width="3" stroke-dasharray="8 6"/><circle cx="778.0" cy="203" r="12" fill="#FFFFFF" stroke="#176CA4" stroke-width="2.5"/><text x="778.0" y="211" font-size="24" font-weight="bold" text-anchor="middle" fill="#176CA4"></text><text x="778.0" y="178" font-size="22" font-weight="normal" text-anchor="middle" fill="#18344A">0.97</text><path d="M778.0,219 L778.0,298" fill="none" stroke="#176CA4" stroke-width="3" stroke-dasharray="8 6"/><circle cx="806.0" cy="251" r="12" fill="#FFFFFF" stroke="#176CA4" stroke-width="2.5"/><text x="806.0" y="259" font-size="24" font-weight="bold" text-anchor="middle" fill="#176CA4"></text><text x="806.0" y="226" font-size="22" font-weight="normal" text-anchor="middle" fill="#18344A">0.99</text><path d="M806.0,267 L806.0,298" fill="none" stroke="#176CA4" stroke-width="3" stroke-dasharray="8 6"/><path d="M572.66667,85 L572.66667,300" fill="none" stroke="#AD3346" stroke-width="3" stroke-dasharray="8 6"/><text x="572.66667" y="55" font-size="22" font-weight="normal" text-anchor="middle" fill="#AD3346">mean 0.8233</text><text x="450" y="405" font-size="19" font-weight="normal" text-anchor="middle" fill="#5B6874">Supplied illustrative values, not measured runs; three points do not establish bimodality.</text></g></svg>
